<svg width="431" height="77" viewBox="0 0 431 77" fill="none" xmlns="http://www.w3.org/2000/svg">
<path d="M0 8C0 3.58172 3.58172 0 8 0H431V77H8C3.58172 77 0 73.4183 0 69V8Z" fill="white"/>
<path d="M27.125 50H24.8977L33.3636 26.7273H35.6364L44.1023 50H41.875L34.5795 29.4886H34.4205L27.125 50ZM28.7273 41.0795H40.2727V42.9886H28.7273V41.0795ZM65.2244 34H63.0881C62.929 33.2045 62.6411 32.4697 62.2244 31.7955C61.8153 31.1136 61.3002 30.5189 60.679 30.0114C60.0578 29.5038 59.3532 29.1098 58.5653 28.8295C57.7775 28.5492 56.9252 28.4091 56.0085 28.4091C54.5388 28.4091 53.1979 28.7917 51.9858 29.5568C50.7813 30.322 49.8153 31.447 49.0881 32.9318C48.3684 34.4091 48.0085 36.2197 48.0085 38.3636C48.0085 40.5227 48.3684 42.3409 49.0881 43.8182C49.8153 45.2955 50.7813 46.4167 51.9858 47.1818C53.1979 47.9394 54.5388 48.3182 56.0085 48.3182C56.9252 48.3182 57.7775 48.178 58.5653 47.8977C59.3532 47.6174 60.0578 47.2273 60.679 46.7273C61.3002 46.2197 61.8153 45.625 62.2244 44.9432C62.6411 44.2614 62.929 43.5227 63.0881 42.7273H65.2244C65.035 43.7955 64.679 44.7917 64.1562 45.7159C63.6411 46.6326 62.982 47.4356 62.179 48.125C61.3835 48.8144 60.4669 49.3523 59.429 49.7386C58.3911 50.125 57.2509 50.3182 56.0085 50.3182C54.054 50.3182 52.3191 49.8295 50.804 48.8523C49.2888 47.8674 48.0994 46.4811 47.2358 44.6932C46.3797 42.9053 45.9517 40.7955 45.9517 38.3636C45.9517 35.9318 46.3797 33.822 47.2358 32.0341C48.0994 30.2462 49.2888 28.8636 50.804 27.8864C52.3191 26.9015 54.054 26.4091 56.0085 26.4091C57.2509 26.4091 58.3911 26.6023 59.429 26.9886C60.4669 27.3674 61.3835 27.9053 62.179 28.6023C62.982 29.2917 63.6411 30.0947 64.1562 31.0114C64.679 31.928 65.035 32.9242 65.2244 34ZM89.2955 38.3636C89.2955 40.7879 88.8636 42.8977 88 44.6932C87.1364 46.4811 85.947 47.8674 84.4318 48.8523C82.9242 49.8295 81.1894 50.3182 79.2273 50.3182C77.2652 50.3182 75.5265 49.8295 74.0114 48.8523C72.5038 47.8674 71.3182 46.4811 70.4545 44.6932C69.5985 42.8977 69.1705 40.7879 69.1705 38.3636C69.1705 35.9394 69.5985 33.8333 70.4545 32.0455C71.3182 30.25 72.5076 28.8636 74.0227 27.8864C75.5379 26.9015 77.2727 26.4091 79.2273 26.4091C81.1894 26.4091 82.9242 26.9015 84.4318 27.8864C85.947 28.8636 87.1364 30.25 88 32.0455C88.8636 33.8333 89.2955 35.9394 89.2955 38.3636ZM87.2273 38.3636C87.2273 36.2803 86.8788 34.4962 86.1818 33.0114C85.4848 31.5189 84.5341 30.3788 83.3295 29.5909C82.125 28.803 80.7576 28.4091 79.2273 28.4091C77.7045 28.4091 76.3409 28.803 75.1364 29.5909C73.9318 30.3788 72.9773 31.5152 72.2727 33C71.5758 34.4848 71.2273 36.2727 71.2273 38.3636C71.2273 40.447 71.5758 42.2311 72.2727 43.7159C72.9697 45.2008 73.9205 46.3409 75.125 47.1364C76.3295 47.9242 77.697 48.3182 79.2273 48.3182C80.7576 48.3182 82.125 47.9242 83.3295 47.1364C84.5417 46.3485 85.4962 45.2121 86.1932 43.7273C86.8902 42.2348 87.2348 40.447 87.2273 38.3636ZM94.4347 26.7273H96.8892L105.332 47H105.537L113.98 26.7273H116.435V50H114.435V31.2159H114.253L106.401 50H104.469L96.6165 31.2159H96.4347V50H94.4347V26.7273ZM122.622 50V26.7273H130.134C131.785 26.7273 133.164 27.0455 134.27 27.6818C135.384 28.3106 136.221 29.1667 136.781 30.25C137.349 31.3333 137.634 32.553 137.634 33.9091C137.634 35.2652 137.353 36.4886 136.793 37.5795C136.232 38.6629 135.399 39.5227 134.293 40.1591C133.187 40.7879 131.812 41.1023 130.168 41.1023H124.259V39.1932H130.111C131.33 39.1932 132.342 38.9659 133.145 38.5114C133.948 38.0492 134.546 37.4205 134.94 36.625C135.342 35.8295 135.543 34.9242 135.543 33.9091C135.543 32.8939 135.342 31.9886 134.94 31.1932C134.546 30.3977 133.944 29.7727 133.134 29.3182C132.33 28.8636 131.312 28.6364 130.077 28.6364H124.747V50H122.622ZM140.281 50H138.054L146.52 26.7273H148.793L157.259 50H155.031L147.736 29.4886H147.577L140.281 50ZM141.884 41.0795H153.429V42.9886H141.884V41.0795ZM179.372 26.7273V50H177.304L163.554 30.5114H163.372V50H161.247V26.7273H163.304L177.099 46.2386H177.281V26.7273H179.372ZM185.56 50V26.7273H187.685V37.3977H200.889V26.7273H203.014V50H200.889V39.3068H187.685V50H185.56ZM209.185 50V26.7273H222.685V28.6364H211.31V37.3977H221.969V39.3068H211.31V48.0909H222.912V50H209.185ZM237.219 50H234.991L243.457 26.7273H245.73L254.196 50H251.969L244.673 29.4886H244.514L237.219 50ZM238.821 41.0795H250.366V42.9886H238.821V41.0795ZM286.264 38.3636C286.264 40.7879 285.832 42.8977 284.969 44.6932C284.105 46.4811 282.916 47.8674 281.401 48.8523C279.893 49.8295 278.158 50.3182 276.196 50.3182C274.234 50.3182 272.495 49.8295 270.98 48.8523C269.473 47.8674 268.287 46.4811 267.423 44.6932C266.567 42.8977 266.139 40.7879 266.139 38.3636C266.139 35.9394 266.567 33.8333 267.423 32.0455C268.287 30.25 269.476 28.8636 270.991 27.8864C272.507 26.9015 274.241 26.4091 276.196 26.4091C278.158 26.4091 279.893 26.9015 281.401 27.8864C282.916 28.8636 284.105 30.25 284.969 32.0455C285.832 33.8333 286.264 35.9394 286.264 38.3636ZM284.196 38.3636C284.196 36.2803 283.848 34.4962 283.151 33.0114C282.454 31.5189 281.503 30.3788 280.298 29.5909C279.094 28.803 277.726 28.4091 276.196 28.4091C274.673 28.4091 273.31 28.803 272.105 29.5909C270.901 30.3788 269.946 31.5152 269.241 33C268.545 34.4848 268.196 36.2727 268.196 38.3636C268.196 40.447 268.545 42.2311 269.241 43.7159C269.938 45.2008 270.889 46.3409 272.094 47.1364C273.298 47.9242 274.666 48.3182 276.196 48.3182C277.726 48.3182 279.094 47.9242 280.298 47.1364C281.51 46.3485 282.465 45.2121 283.162 43.7273C283.859 42.2348 284.204 40.447 284.196 38.3636ZM291.403 50V26.7273H299.256C300.771 26.7273 302.032 26.9924 303.04 27.5227C304.055 28.053 304.816 28.7765 305.324 29.6932C305.831 30.6098 306.085 31.6515 306.085 32.8182C306.085 33.7879 305.922 34.6174 305.597 35.3068C305.271 35.9962 304.828 36.553 304.267 36.9773C303.706 37.4015 303.081 37.7083 302.392 37.8977V38.0795C303.142 38.1326 303.869 38.3977 304.574 38.875C305.278 39.3447 305.858 40.0038 306.312 40.8523C306.767 41.7008 306.994 42.7159 306.994 43.8977C306.994 45.072 306.733 46.1212 306.21 47.0455C305.688 47.9621 304.884 48.6856 303.801 49.2159C302.725 49.7386 301.354 50 299.688 50H291.403ZM293.528 48.0909H299.688C301.483 48.0909 302.809 47.6932 303.665 46.8977C304.528 46.1023 304.96 45.1023 304.96 43.8977C304.96 43.0114 304.744 42.2083 304.312 41.4886C303.888 40.7614 303.286 40.1856 302.506 39.7614C301.733 39.3371 300.824 39.125 299.778 39.125H293.528V48.0909ZM293.528 37.2386H299.449C300.366 37.2386 301.169 37.0492 301.858 36.6705C302.547 36.2917 303.085 35.7689 303.472 35.1023C303.858 34.4356 304.051 33.6742 304.051 32.8182C304.051 31.5833 303.65 30.5795 302.847 29.8068C302.044 29.0265 300.847 28.6364 299.256 28.6364H293.528V37.2386ZM312.122 50V26.7273H319.634C321.285 26.7273 322.664 27.0265 323.77 27.625C324.884 28.2159 325.721 29.0379 326.281 30.0909C326.849 31.1364 327.134 32.3371 327.134 33.6932C327.134 35.0492 326.849 36.2462 326.281 37.2841C325.721 38.322 324.887 39.1326 323.781 39.7159C322.675 40.2992 321.304 40.5909 319.668 40.5909H313.27V38.6477H319.611C320.823 38.6477 321.83 38.447 322.634 38.0455C323.444 37.6439 324.046 37.072 324.44 36.3295C324.842 35.5871 325.043 34.7083 325.043 33.6932C325.043 32.678 324.842 31.7917 324.44 31.0341C324.039 30.2689 323.433 29.678 322.622 29.2614C321.819 28.8447 320.804 28.6364 319.577 28.6364H314.247V50H312.122ZM322.384 39.5L328.111 50H325.656L319.986 39.5H322.384ZM332.344 50H330.116L338.582 26.7273H340.855L349.321 50H347.094L339.798 29.4886H339.639L332.344 50ZM333.946 41.0795H345.491V42.9886H333.946V41.0795Z" fill="black"/>
<path d="M391 32V38" stroke="black" stroke-width="2" stroke-linecap="round" stroke-linejoin="round"/>
<path d="M396.2 41L391 38" stroke="black" stroke-width="2" stroke-linecap="round" stroke-linejoin="round"/>
<path d="M398.025 34.4625H403.025V29.4625" stroke="black" stroke-width="2" stroke-linecap="round" stroke-linejoin="round"/>
<path d="M398.775 45.775C397.237 47.3143 395.277 48.3628 393.143 48.788C391.009 49.2132 388.797 48.9958 386.786 48.1635C384.776 47.3312 383.057 45.9213 381.848 44.1122C380.639 42.3031 379.994 40.176 379.994 38C379.994 35.824 380.639 33.6969 381.848 31.8878C383.057 30.0787 384.776 28.6688 386.786 27.8365C388.797 27.0042 391.009 26.7869 393.143 27.212C395.277 27.6372 397.237 28.6857 398.775 30.225L403.025 34.4625" stroke="black" stroke-width="2" stroke-linecap="round" stroke-linejoin="round"/>
</svg>
