<svg width="383" height="77" viewBox="0 0 383 77" fill="none" xmlns="http://www.w3.org/2000/svg">
<path d="M0 8C0 3.58172 3.58172 0 8 0H383V77H8C3.58172 77 0 73.4183 0 69V8Z" fill="white"/>
<path d="M333 39C335.209 39 337 37.2091 337 35C337 32.7909 335.209 31 333 31C330.791 31 329 32.7909 329 35C329 37.2091 330.791 39 333 39Z" stroke="black" stroke-width="2" stroke-linecap="round" stroke-linejoin="round"/>
<path d="M343 35C343 44 333 51 333 51C333 51 323 44 323 35C323 32.3478 324.054 29.8043 325.929 27.9289C327.804 26.0536 330.348 25 333 25C335.652 25 338.196 26.0536 340.071 27.9289C341.946 29.8043 343 32.3478 343 35V35Z" stroke="black" stroke-width="2" stroke-linecap="round" stroke-linejoin="round"/>
<path d="M38.0909 50V26.7273H51.5909V28.6364H40.2159V37.3977H50.875V39.3068H40.2159V48.0909H51.8182V50H38.0909ZM75.2159 26.7273V50H73.1477L59.3977 30.5114H59.2159V50H57.0909V26.7273H59.1477L72.9432 46.2386H73.125V26.7273H75.2159ZM99.6307 34H97.4943C97.3352 33.2045 97.0473 32.4697 96.6307 31.7955C96.2216 31.1136 95.7064 30.5189 95.0852 30.0114C94.464 29.5038 93.7595 29.1098 92.9716 28.8295C92.1837 28.5492 91.3314 28.4091 90.4148 28.4091C88.9451 28.4091 87.6042 28.7917 86.392 29.5568C85.1875 30.322 84.2216 31.447 83.4943 32.9318C82.7746 34.4091 82.4148 36.2197 82.4148 38.3636C82.4148 40.5227 82.7746 42.3409 83.4943 43.8182C84.2216 45.2955 85.1875 46.4167 86.392 47.1818C87.6042 47.9394 88.9451 48.3182 90.4148 48.3182C91.3314 48.3182 92.1837 48.178 92.9716 47.8977C93.7595 47.6174 94.464 47.2273 95.0852 46.7273C95.7064 46.2197 96.2216 45.625 96.6307 44.9432C97.0473 44.2614 97.3352 43.5227 97.4943 42.7273H99.6307C99.4413 43.7955 99.0852 44.7917 98.5625 45.7159C98.0473 46.6326 97.3883 47.4356 96.5852 48.125C95.7898 48.8144 94.8731 49.3523 93.8352 49.7386C92.7973 50.125 91.6572 50.3182 90.4148 50.3182C88.4602 50.3182 86.7254 49.8295 85.2102 48.8523C83.6951 47.8674 82.5057 46.4811 81.642 44.6932C80.786 42.9053 80.358 40.7955 80.358 38.3636C80.358 35.9318 80.786 33.822 81.642 32.0341C82.5057 30.2462 83.6951 28.8636 85.2102 27.8864C86.7254 26.9015 88.4602 26.4091 90.4148 26.4091C91.6572 26.4091 92.7973 26.6023 93.8352 26.9886C94.8731 27.3674 95.7898 27.9053 96.5852 28.6023C97.3883 29.2917 98.0473 30.0947 98.5625 31.0114C99.0852 31.928 99.4413 32.9242 99.6307 34ZM123.702 38.3636C123.702 40.7879 123.27 42.8977 122.406 44.6932C121.543 46.4811 120.353 47.8674 118.838 48.8523C117.33 49.8295 115.596 50.3182 113.634 50.3182C111.671 50.3182 109.933 49.8295 108.418 48.8523C106.91 47.8674 105.724 46.4811 104.861 44.6932C104.005 42.8977 103.577 40.7879 103.577 38.3636C103.577 35.9394 104.005 33.8333 104.861 32.0455C105.724 30.25 106.914 28.8636 108.429 27.8864C109.944 26.9015 111.679 26.4091 113.634 26.4091C115.596 26.4091 117.33 26.9015 118.838 27.8864C120.353 28.8636 121.543 30.25 122.406 32.0455C123.27 33.8333 123.702 35.9394 123.702 38.3636ZM121.634 38.3636C121.634 36.2803 121.285 34.4962 120.588 33.0114C119.891 31.5189 118.94 30.3788 117.736 29.5909C116.531 28.803 115.164 28.4091 113.634 28.4091C112.111 28.4091 110.747 28.803 109.543 29.5909C108.338 30.3788 107.384 31.5152 106.679 33C105.982 34.4848 105.634 36.2727 105.634 38.3636C105.634 40.447 105.982 42.2311 106.679 43.7159C107.376 45.2008 108.327 46.3409 109.531 47.1364C110.736 47.9242 112.103 48.3182 113.634 48.3182C115.164 48.3182 116.531 47.9242 117.736 47.1364C118.948 46.3485 119.902 45.2121 120.599 43.7273C121.296 42.2348 121.641 40.447 121.634 38.3636ZM146.966 26.7273V50H144.898L131.148 30.5114H130.966V50H128.841V26.7273H130.898L144.693 46.2386H144.875V26.7273H146.966ZM151.744 28.6364V26.7273H168.619V28.6364H161.244V50H159.119V28.6364H151.744ZM173.403 50V26.7273H180.915C182.566 26.7273 183.945 27.0265 185.051 27.625C186.165 28.2159 187.002 29.0379 187.562 30.0909C188.131 31.1364 188.415 32.3371 188.415 33.6932C188.415 35.0492 188.131 36.2462 187.562 37.2841C187.002 38.322 186.169 39.1326 185.062 39.7159C183.956 40.2992 182.585 40.5909 180.949 40.5909H174.551V38.6477H180.892C182.104 38.6477 183.112 38.447 183.915 38.0455C184.725 37.6439 185.328 37.072 185.722 36.3295C186.123 35.5871 186.324 34.7083 186.324 33.6932C186.324 32.678 186.123 31.7917 185.722 31.0341C185.32 30.2689 184.714 29.678 183.903 29.2614C183.1 28.8447 182.085 28.6364 180.858 28.6364H175.528V50H173.403ZM183.665 39.5L189.392 50H186.938L181.267 39.5H183.665ZM193.591 50V26.7273H207.091V28.6364H195.716V37.3977H206.375V39.3068H195.716V48.0909H207.318V50H193.591ZM221.591 37.4091V39.3182H211.909V37.4091H221.591ZM245.216 26.7273V50H243.148L229.398 30.5114H229.216V50H227.091V26.7273H229.148L242.943 46.2386H243.125V26.7273H245.216ZM270.483 38.3636C270.483 40.7879 270.051 42.8977 269.188 44.6932C268.324 46.4811 267.134 47.8674 265.619 48.8523C264.112 49.8295 262.377 50.3182 260.415 50.3182C258.453 50.3182 256.714 49.8295 255.199 48.8523C253.691 47.8674 252.506 46.4811 251.642 44.6932C250.786 42.8977 250.358 40.7879 250.358 38.3636C250.358 35.9394 250.786 33.8333 251.642 32.0455C252.506 30.25 253.695 28.8636 255.21 27.8864C256.725 26.9015 258.46 26.4091 260.415 26.4091C262.377 26.4091 264.112 26.9015 265.619 27.8864C267.134 28.8636 268.324 30.25 269.188 32.0455C270.051 33.8333 270.483 35.9394 270.483 38.3636ZM268.415 38.3636C268.415 36.2803 268.066 34.4962 267.369 33.0114C266.672 31.5189 265.722 30.3788 264.517 29.5909C263.313 28.803 261.945 28.4091 260.415 28.4091C258.892 28.4091 257.528 28.803 256.324 29.5909C255.119 30.3788 254.165 31.5152 253.46 33C252.763 34.4848 252.415 36.2727 252.415 38.3636C252.415 40.447 252.763 42.2311 253.46 43.7159C254.157 45.2008 255.108 46.3409 256.312 47.1364C257.517 47.9242 258.884 48.3182 260.415 48.3182C261.945 48.3182 263.313 47.9242 264.517 47.1364C265.729 46.3485 266.684 45.2121 267.381 43.7273C268.078 42.2348 268.422 40.447 268.415 38.3636ZM288.259 32.5455C288.13 31.25 287.558 30.2197 286.543 29.4545C285.527 28.6894 284.251 28.3068 282.713 28.3068C281.63 28.3068 280.675 28.4924 279.849 28.8636C279.031 29.2348 278.387 29.75 277.918 30.4091C277.455 31.0606 277.224 31.803 277.224 32.6364C277.224 33.25 277.357 33.7879 277.622 34.25C277.887 34.7121 278.243 35.1098 278.69 35.4432C279.145 35.7689 279.645 36.0492 280.19 36.2841C280.743 36.5189 281.3 36.7159 281.861 36.875L284.315 37.5795C285.058 37.7841 285.8 38.0455 286.543 38.3636C287.285 38.6818 287.963 39.0833 288.577 39.5682C289.198 40.0455 289.694 40.6326 290.065 41.3295C290.444 42.0189 290.634 42.8485 290.634 43.8182C290.634 45.0606 290.312 46.178 289.668 47.1705C289.024 48.1629 288.099 48.9508 286.895 49.5341C285.69 50.1098 284.247 50.3977 282.565 50.3977C280.982 50.3977 279.607 50.1364 278.44 49.6136C277.274 49.0833 276.357 48.3523 275.69 47.4205C275.024 46.4886 274.649 45.4091 274.565 44.1818H276.747C276.823 45.0985 277.126 45.875 277.656 46.5114C278.187 47.1477 278.876 47.6326 279.724 47.9659C280.573 48.2917 281.52 48.4545 282.565 48.4545C283.724 48.4545 284.755 48.2614 285.656 47.875C286.565 47.4811 287.277 46.9356 287.793 46.2386C288.315 45.5341 288.577 44.7159 288.577 43.7841C288.577 42.9962 288.372 42.3371 287.963 41.8068C287.554 41.2689 286.982 40.8182 286.247 40.4545C285.52 40.0909 284.675 39.7689 283.713 39.4886L280.929 38.6705C279.103 38.125 277.687 37.3712 276.679 36.4091C275.671 35.447 275.168 34.2197 275.168 32.7273C275.168 31.4773 275.501 30.3788 276.168 29.4318C276.842 28.4773 277.751 27.7348 278.895 27.2045C280.046 26.6667 281.338 26.3977 282.77 26.3977C284.217 26.3977 285.497 26.6629 286.611 27.1932C287.724 27.7235 288.607 28.4545 289.259 29.3864C289.918 30.3106 290.27 31.3636 290.315 32.5455H288.259Z" fill="black"/>
</svg>
