<svg width="474" height="76" viewBox="0 0 474 76" fill="none" xmlns="http://www.w3.org/2000/svg">
<path d="M3.86364 39V9.90909H13.2528C15.3172 9.90909 17.0407 10.3068 18.4233 11.1023C19.8153 11.8883 20.8617 12.9583 21.5625 14.3125C22.2727 15.6667 22.6278 17.1913 22.6278 18.8864C22.6278 20.5814 22.2775 22.1108 21.5767 23.4744C20.8759 24.8286 19.8343 25.9034 18.4517 26.6989C17.0691 27.4848 15.3504 27.8778 13.2955 27.8778H5.90909V25.4915H13.2244C14.7491 25.4915 16.0133 25.2074 17.017 24.6392C18.0208 24.0616 18.7689 23.2756 19.2614 22.2812C19.7633 21.2869 20.0142 20.1553 20.0142 18.8864C20.0142 17.6174 19.7633 16.4858 19.2614 15.4915C18.7689 14.4972 18.0161 13.7159 17.0028 13.1477C15.9991 12.5795 14.7254 12.2955 13.1818 12.2955H6.51989V39H3.86364ZM60.7131 24.4545C60.7131 27.4848 60.1733 30.1222 59.0938 32.3665C58.0142 34.6013 56.5275 36.3343 54.6335 37.5653C52.7491 38.7869 50.5805 39.3977 48.1278 39.3977C45.6752 39.3977 43.5019 38.7869 41.608 37.5653C39.7235 36.3343 38.2415 34.6013 37.1619 32.3665C36.0919 30.1222 35.5568 27.4848 35.5568 24.4545C35.5568 21.4242 36.0919 18.7917 37.1619 16.5568C38.2415 14.3125 39.7282 12.5795 41.6222 11.358C43.5161 10.1269 45.6847 9.51136 48.1278 9.51136C50.5805 9.51136 52.7491 10.1269 54.6335 11.358C56.5275 12.5795 58.0142 14.3125 59.0938 16.5568C60.1733 18.7917 60.7131 21.4242 60.7131 24.4545ZM58.1278 24.4545C58.1278 21.8504 57.6922 19.6203 56.821 17.7642C55.9498 15.8987 54.7614 14.4735 53.2557 13.4886C51.75 12.5038 50.0407 12.0114 48.1278 12.0114C46.2244 12.0114 44.5199 12.5038 43.0142 13.4886C41.5085 14.4735 40.3153 15.8939 39.4347 17.75C38.5634 19.6061 38.1278 21.8409 38.1278 24.4545C38.1278 27.0587 38.5634 29.2888 39.4347 31.1449C40.3059 33.0009 41.4943 34.4261 43 35.4205C44.5057 36.4053 46.215 36.8977 48.1278 36.8977C50.0407 36.8977 51.75 36.4053 53.2557 35.4205C54.7708 34.4356 55.964 33.0152 56.8352 31.1591C57.7064 29.2936 58.1373 27.0587 58.1278 24.4545ZM97.7933 9.90909V39H95.2081L78.0206 14.6392H77.7933V39H75.1371V9.90909H77.7081L94.9524 34.2983H95.1797V9.90909H97.7933ZM111.766 12.2955V9.90909H132.86V12.2955H123.641V39H120.985V12.2955H111.766ZM143.484 39H140.7L151.283 9.90909H154.124L164.706 39H161.922L152.803 13.3608H152.604L143.484 39ZM145.487 27.8494H159.919V30.2358H145.487V27.8494ZM177.692 39V9.90909H180.348V36.6136H194.212V39H177.692ZM235.964 39H227.442V9.90909H236.476C239.25 9.90909 241.623 10.4867 243.592 11.642C245.571 12.7973 247.087 14.4545 248.138 16.6136C249.189 18.7727 249.714 21.3627 249.714 24.3835C249.714 27.4328 249.175 30.0511 248.095 32.2386C247.025 34.4167 245.463 36.0881 243.408 37.2528C241.362 38.4176 238.881 39 235.964 39ZM230.098 36.6136H235.808C238.308 36.6136 240.401 36.1212 242.087 35.1364C243.772 34.1515 245.036 32.7453 245.879 30.9176C246.722 29.09 247.143 26.9119 247.143 24.3835C247.134 21.8741 246.717 19.715 245.893 17.9062C245.079 16.0975 243.867 14.7102 242.257 13.7443C240.657 12.7784 238.678 12.2955 236.32 12.2955H230.098V36.6136ZM262.828 39H260.044L270.626 9.90909H273.467L284.05 39H281.266L272.146 13.3608H271.947L262.828 39ZM264.831 27.8494H279.263V30.2358H264.831V27.8494ZM316.286 39V9.90909H326.101C327.995 9.90909 329.571 10.2405 330.831 10.9034C332.1 11.5663 333.052 12.4706 333.686 13.6165C334.321 14.7623 334.638 16.0644 334.638 17.5227C334.638 18.7348 334.434 19.7718 334.027 20.6335C333.62 21.4953 333.066 22.1913 332.365 22.7216C331.664 23.2519 330.883 23.6354 330.021 23.8722V24.0994C330.959 24.1657 331.868 24.4972 332.749 25.0938C333.629 25.6809 334.354 26.5047 334.922 27.5653C335.49 28.6259 335.774 29.8949 335.774 31.3722C335.774 32.84 335.447 34.1515 334.794 35.3068C334.141 36.4527 333.137 37.357 331.783 38.0199C330.438 38.6733 328.724 39 326.641 39H316.286ZM318.942 36.6136H326.641C328.885 36.6136 330.542 36.1165 331.612 35.1222C332.692 34.1278 333.232 32.8778 333.232 31.3722C333.232 30.2642 332.962 29.2604 332.422 28.3608C331.892 27.4517 331.139 26.732 330.163 26.2017C329.197 25.6714 328.061 25.4062 326.754 25.4062H318.942V36.6136ZM318.942 23.0483H326.342C327.488 23.0483 328.492 22.8116 329.354 22.3381C330.215 21.8646 330.888 21.2112 331.371 20.3778C331.854 19.5445 332.095 18.5928 332.095 17.5227C332.095 15.9792 331.593 14.7244 330.589 13.7585C329.586 12.7831 328.089 12.2955 326.101 12.2955H318.942V23.0483ZM350.227 39H347.442L358.025 9.90909H360.866L371.448 39H368.664L359.545 13.3608H359.346L350.227 39ZM352.229 27.8494H366.661V30.2358H352.229V27.8494ZM384.434 39V9.90909H393.823C395.888 9.90909 397.611 10.2831 398.994 11.0312C400.386 11.7699 401.432 12.7973 402.133 14.1136C402.843 15.4205 403.198 16.9214 403.198 18.6165C403.198 20.3116 402.843 21.8078 402.133 23.1051C401.432 24.4025 400.39 25.4157 399.008 26.1449C397.625 26.8741 395.911 27.2386 393.866 27.2386H385.869V24.8097H393.795C395.31 24.8097 396.569 24.5587 397.573 24.0568C398.586 23.5549 399.339 22.84 399.832 21.9119C400.334 20.9839 400.585 19.8854 400.585 18.6165C400.585 17.3475 400.334 16.2396 399.832 15.2926C399.33 14.3362 398.572 13.5975 397.559 13.0767C396.555 12.5559 395.286 12.2955 393.752 12.2955H387.09V39H384.434ZM397.261 25.875L404.42 39H401.352L394.263 25.875H397.261ZM417.668 39V9.90909H427.058C429.122 9.90909 430.845 10.2831 432.228 11.0312C433.62 11.7699 434.666 12.7973 435.367 14.1136C436.077 15.4205 436.433 16.9214 436.433 18.6165C436.433 20.3116 436.077 21.8078 435.367 23.1051C434.666 24.4025 433.625 25.4157 432.242 26.1449C430.86 26.8741 429.146 27.2386 427.1 27.2386H419.103V24.8097H427.029C428.544 24.8097 429.804 24.5587 430.808 24.0568C431.821 23.5549 432.574 22.84 433.066 21.9119C433.568 20.9839 433.819 19.8854 433.819 18.6165C433.819 17.3475 433.568 16.2396 433.066 15.2926C432.564 14.3362 431.807 13.5975 430.793 13.0767C429.79 12.5559 428.521 12.2955 426.987 12.2955H420.325V39H417.668ZM430.495 25.875L437.654 39H434.586L427.498 25.875H430.495ZM450.945 39H448.161L458.744 9.90909H461.585L472.167 39H469.383L460.263 13.3608H460.065L450.945 39ZM452.948 27.8494H467.38V30.2358H452.948V27.8494Z" fill="white"/>
<path d="M350.832 69.3409C349.44 69.3409 348.214 68.9751 347.156 68.2436C346.098 67.505 345.271 66.4964 344.674 65.218C344.085 63.9396 343.79 62.4908 343.79 60.8714C343.79 59.2521 344.088 57.8033 344.685 56.5249C345.281 55.2464 346.109 54.2379 347.167 53.4993C348.225 52.7607 349.443 52.3913 350.821 52.3913C351.858 52.3913 352.803 52.6044 353.655 53.0305C354.514 53.4567 355.224 54.0497 355.786 54.8097C356.354 55.5696 356.716 56.4503 356.872 57.4517H355.551C355.338 56.3437 354.805 55.4276 353.953 54.7031C353.108 53.9716 352.067 53.6058 350.832 53.6058C349.724 53.6058 348.737 53.9183 347.87 54.5433C347.004 55.1612 346.322 56.017 345.825 57.1108C345.327 58.1974 345.079 59.4439 345.079 60.8501C345.079 62.2351 345.32 63.478 345.803 64.5788C346.286 65.6726 346.961 66.5391 347.827 67.1783C348.694 67.8175 349.695 68.1371 350.832 68.1371C351.634 68.1371 352.366 67.9773 353.026 67.6577C353.694 67.3381 354.251 66.8835 354.699 66.294C355.146 65.7045 355.441 65.0156 355.583 64.2273H356.904C356.748 65.2358 356.393 66.1236 355.839 66.8906C355.285 67.6577 354.578 68.2578 353.719 68.6911C352.859 69.1243 351.897 69.3409 350.832 69.3409ZM370.419 69.3409C369.07 69.3409 367.869 68.9787 366.818 68.2543C365.767 67.5227 364.94 66.5178 364.336 65.2393C363.732 63.9609 363.43 62.505 363.43 60.8714C363.43 59.2308 363.732 57.7749 364.336 56.5036C364.94 55.2251 365.767 54.2202 366.818 53.4886C367.869 52.7571 369.07 52.3913 370.419 52.3913C371.768 52.3913 372.969 52.7571 374.02 53.4886C375.071 54.2202 375.898 55.2251 376.502 56.5036C377.106 57.782 377.408 59.2379 377.408 60.8714C377.408 62.505 377.106 63.9609 376.502 65.2393C375.898 66.5178 375.071 67.5227 374.02 68.2543C372.969 68.9787 371.768 69.3409 370.419 69.3409ZM370.419 68.1371C371.563 68.1371 372.56 67.8139 373.413 67.1676C374.272 66.5213 374.936 65.6477 375.405 64.5469C375.881 63.446 376.119 62.2209 376.119 60.8714C376.119 59.522 375.881 58.3004 375.405 57.2067C374.929 56.1058 374.265 55.2322 373.413 54.5859C372.56 53.9325 371.563 53.6058 370.419 53.6058C369.276 53.6058 368.278 53.9325 367.425 54.5859C366.573 55.2322 365.909 56.1058 365.433 57.2067C364.957 58.3004 364.719 59.522 364.719 60.8714C364.719 62.2209 364.954 63.446 365.423 64.5469C365.898 65.6477 366.562 66.5213 367.415 67.1676C368.274 67.8139 369.276 68.1371 370.419 68.1371ZM386.184 58.3892V69H384.885V52.6364H386.153V55.2251H386.28C386.664 54.38 387.278 53.7017 388.123 53.1903C388.969 52.679 389.974 52.4233 391.138 52.4233C392.239 52.4233 393.205 52.6577 394.036 53.1264C394.874 53.5952 395.528 54.2628 395.996 55.1293C396.472 55.9886 396.71 57.0149 396.71 58.2081V69H395.41V58.2614C395.41 56.8693 394.995 55.7507 394.164 54.9055C393.34 54.0533 392.25 53.6271 390.893 53.6271C389.984 53.6271 389.175 53.826 388.464 54.2237C387.754 54.6214 387.197 55.179 386.792 55.8963C386.387 56.6065 386.184 57.4375 386.184 58.3892ZM411.248 69.3409C409.856 69.3409 408.631 68.9751 407.572 68.2436C406.514 67.505 405.687 66.4964 405.09 65.218C404.501 63.9396 404.206 62.4908 404.206 60.8714C404.206 59.2521 404.504 57.8033 405.101 56.5249C405.697 55.2464 406.525 54.2379 407.583 53.4993C408.641 52.7607 409.859 52.3913 411.237 52.3913C412.274 52.3913 413.219 52.6044 414.071 53.0305C414.93 53.4567 415.64 54.0497 416.202 54.8097C416.77 55.5696 417.132 56.4503 417.288 57.4517H415.967C415.754 56.3437 415.221 55.4276 414.369 54.7031C413.524 53.9716 412.483 53.6058 411.248 53.6058C410.14 53.6058 409.153 53.9183 408.286 54.5433C407.42 55.1612 406.738 56.017 406.241 57.1108C405.743 58.1974 405.495 59.4439 405.495 60.8501C405.495 62.2351 405.736 63.478 406.219 64.5788C406.702 65.6726 407.377 66.5391 408.243 67.1783C409.11 67.8175 410.111 68.1371 411.248 68.1371C412.05 68.1371 412.782 67.9773 413.442 67.6577C414.11 67.3381 414.667 66.8835 415.115 66.294C415.562 65.7045 415.857 65.0156 415.999 64.2273H417.32C417.164 65.2358 416.809 66.1236 416.255 66.8906C415.701 67.6577 414.994 68.2578 414.135 68.6911C413.275 69.1243 412.313 69.3409 411.248 69.3409ZM431.133 69.3409C429.656 69.3409 428.371 68.9751 427.277 68.2436C426.183 67.5121 425.338 66.5107 424.741 65.2393C424.145 63.968 423.846 62.5192 423.846 60.8928C423.846 59.2592 424.145 57.8033 424.741 56.5249C425.345 55.2464 426.172 54.2379 427.224 53.4993C428.275 52.7607 429.475 52.3913 430.824 52.3913C431.741 52.3913 432.607 52.576 433.424 52.9453C434.248 53.3075 434.972 53.8331 435.597 54.522C436.229 55.2109 436.723 56.0419 437.078 57.0149C437.44 57.9879 437.621 59.0817 437.621 60.2962V61.1058H424.667V59.9233H436.322C436.322 58.7372 436.08 57.6683 435.597 56.7166C435.114 55.7649 434.457 55.0085 433.626 54.4474C432.795 53.8864 431.861 53.6058 430.824 53.6058C429.738 53.6058 428.768 53.9112 427.916 54.522C427.071 55.1257 426.4 55.9425 425.903 56.9723C425.412 58.0021 425.157 59.1527 425.135 60.424V60.9567C425.135 62.3203 425.373 63.5455 425.849 64.6321C426.332 65.7116 427.021 66.5675 427.916 67.1996C428.811 67.8246 429.883 68.1371 431.133 68.1371C432.028 68.1371 432.792 67.9879 433.424 67.6896C434.063 67.3842 434.585 67.0149 434.99 66.5817C435.395 66.1484 435.7 65.7294 435.906 65.3246L437.089 65.804C436.84 66.3509 436.453 66.8977 435.927 67.4446C435.409 67.9844 434.748 68.4354 433.946 68.7976C433.15 69.1598 432.213 69.3409 431.133 69.3409ZM445.096 75.1364V52.6364H446.363V56.2905H446.523C446.779 55.5874 447.138 54.9411 447.599 54.3516C448.068 53.7621 448.647 53.2898 449.336 52.9347C450.032 52.5724 450.849 52.3913 451.786 52.3913C453.107 52.3913 454.258 52.7536 455.238 53.478C456.218 54.2024 456.978 55.2038 457.518 56.4822C458.057 57.7536 458.327 59.2131 458.327 60.8608C458.327 62.5085 458.054 63.9716 457.507 65.25C456.967 66.5213 456.207 67.5227 455.227 68.2543C454.254 68.9787 453.114 69.3409 451.807 69.3409C450.877 69.3409 450.06 69.1634 449.357 68.8082C448.661 68.4531 448.075 67.9808 447.599 67.3913C447.131 66.7947 446.772 66.1413 446.523 65.4311H446.395V75.1364H445.096ZM446.374 60.8501C446.374 62.2422 446.587 63.4886 447.013 64.5895C447.439 65.6832 448.05 66.5497 448.846 67.1889C449.641 67.821 450.589 68.1371 451.69 68.1371C452.805 68.1371 453.76 67.8175 454.556 67.1783C455.358 66.532 455.969 65.6584 456.388 64.5575C456.814 63.4567 457.028 62.2209 457.028 60.8501C457.028 59.4794 456.818 58.2472 456.399 57.1534C455.98 56.0597 455.373 55.1967 454.577 54.5646C453.782 53.9254 452.819 53.6058 451.69 53.6058C450.575 53.6058 449.62 53.9219 448.824 54.554C448.036 55.179 447.429 56.0384 447.003 57.1321C446.584 58.2187 446.374 59.4581 446.374 60.8501ZM471.605 52.6364V53.7976H464.457V52.6364H471.605ZM466.875 48.7159H468.164V65.1328C468.164 65.8004 468.292 66.3473 468.548 66.7734C468.81 67.1925 469.151 67.505 469.57 67.7109C469.996 67.9098 470.451 68.0092 470.934 68.0092C471.168 68.0092 471.371 67.9915 471.541 67.956C471.719 67.9205 471.886 67.8743 472.042 67.8175L472.362 69C472.163 69.071 471.942 69.1314 471.701 69.1811C471.46 69.2379 471.175 69.2663 470.849 69.2663C470.167 69.2663 469.521 69.1136 468.91 68.8082C468.306 68.5028 467.816 68.0589 467.44 67.4766C467.063 66.8942 466.875 66.1911 466.875 65.3672V48.7159Z" fill="white"/>
</svg>
