<svg width="492" height="115" viewBox="0 0 492 115" fill="none" xmlns="http://www.w3.org/2000/svg">
<path d="M0 0H484C488.418 0 492 3.58172 492 8V107C492 111.418 488.418 115 484 115H0V0Z" fill="white"/>
<path d="M60.0909 57V33.7273H67.6023C69.2538 33.7273 70.6326 34.0455 71.7386 34.6818C72.8523 35.3106 73.6894 36.1667 74.25 37.25C74.8182 38.3333 75.1023 39.553 75.1023 40.9091C75.1023 42.2652 74.822 43.4886 74.2614 44.5795C73.7008 45.6629 72.8674 46.5227 71.7614 47.1591C70.6553 47.7879 69.2803 48.1023 67.6364 48.1023H61.7273V46.1932H67.5795C68.7992 46.1932 69.8106 45.9659 70.6136 45.5114C71.4167 45.0492 72.0152 44.4205 72.4091 43.625C72.8106 42.8295 73.0114 41.9242 73.0114 40.9091C73.0114 39.8939 72.8106 38.9886 72.4091 38.1932C72.0152 37.3977 71.4129 36.7727 70.6023 36.3182C69.7992 35.8636 68.7803 35.6364 67.5455 35.6364H62.2159V57H60.0909ZM105.57 45.3636C105.57 47.7879 105.139 49.8977 104.275 51.6932C103.411 53.4811 102.222 54.8674 100.707 55.8523C99.1992 56.8295 97.4644 57.3182 95.5023 57.3182C93.5402 57.3182 91.8015 56.8295 90.2864 55.8523C88.7788 54.8674 87.5932 53.4811 86.7295 51.6932C85.8735 49.8977 85.4455 47.7879 85.4455 45.3636C85.4455 42.9394 85.8735 40.8333 86.7295 39.0455C87.5932 37.25 88.7826 35.8636 90.2977 34.8864C91.8129 33.9015 93.5477 33.4091 95.5023 33.4091C97.4644 33.4091 99.1992 33.9015 100.707 34.8864C102.222 35.8636 103.411 37.25 104.275 39.0455C105.139 40.8333 105.57 42.9394 105.57 45.3636ZM103.502 45.3636C103.502 43.2803 103.154 41.4962 102.457 40.0114C101.76 38.5189 100.809 37.3788 99.6045 36.5909C98.4 35.803 97.0326 35.4091 95.5023 35.4091C93.9795 35.4091 92.6159 35.803 91.4114 36.5909C90.2068 37.3788 89.2523 38.5152 88.5477 40C87.8508 41.4848 87.5023 43.2727 87.5023 45.3636C87.5023 47.447 87.8508 49.2311 88.5477 50.7159C89.2447 52.2008 90.1955 53.3409 91.4 54.1364C92.6045 54.9242 93.972 55.3182 95.5023 55.3182C97.0326 55.3182 98.4 54.9242 99.6045 54.1364C100.817 53.3485 101.771 52.2121 102.468 50.7273C103.165 49.2348 103.51 47.447 103.502 45.3636ZM135.235 33.7273V57H133.166L119.416 37.5114H119.235V57H117.11V33.7273H119.166L132.962 53.2386H133.144V33.7273H135.235ZM146.413 35.6364V33.7273H163.288V35.6364H155.913V57H153.788V35.6364H146.413ZM171.787 57H169.56L178.026 33.7273H180.299L188.765 57H186.537L179.242 36.4886H179.083L171.787 57ZM173.39 48.0795H184.935V49.9886H173.39V48.0795ZM199.153 57V33.7273H201.278V55.0909H212.369V57H199.153ZM245.772 57H238.953V33.7273H246.181C248.4 33.7273 250.298 34.1894 251.874 35.1136C253.457 36.0379 254.669 37.3636 255.51 39.0909C256.351 40.8182 256.772 42.8902 256.772 45.3068C256.772 47.7462 256.34 49.8409 255.476 51.5909C254.62 53.3333 253.37 54.6705 251.726 55.6023C250.09 56.5341 248.105 57 245.772 57ZM241.078 55.0909H245.647C247.647 55.0909 249.321 54.697 250.669 53.9091C252.018 53.1212 253.029 51.9962 253.703 50.5341C254.378 49.072 254.715 47.3295 254.715 45.3068C254.707 43.2992 254.374 41.572 253.715 40.125C253.063 38.678 252.094 37.5682 250.806 36.7955C249.525 36.0227 247.942 35.6364 246.056 35.6364H241.078V55.0909ZM267.262 57H265.035L273.501 33.7273H275.774L284.24 57H282.012L274.717 36.4886H274.558L267.262 57ZM268.865 48.0795H280.41V49.9886H268.865V48.0795ZM310.028 57V33.7273H317.881C319.396 33.7273 320.657 33.9924 321.665 34.5227C322.68 35.053 323.441 35.7765 323.949 36.6932C324.456 37.6098 324.71 38.6515 324.71 39.8182C324.71 40.7879 324.547 41.6174 324.222 42.3068C323.896 42.9962 323.453 43.553 322.892 43.9773C322.331 44.4015 321.706 44.7083 321.017 44.8977V45.0795C321.767 45.1326 322.494 45.3977 323.199 45.875C323.903 46.3447 324.483 47.0038 324.938 47.8523C325.392 48.7008 325.619 49.7159 325.619 50.8977C325.619 52.072 325.358 53.1212 324.835 54.0455C324.312 54.9621 323.509 55.6856 322.426 56.2159C321.35 56.7386 319.979 57 318.312 57H310.028ZM312.153 55.0909H318.312C320.108 55.0909 321.434 54.6932 322.29 53.8977C323.153 53.1023 323.585 52.1023 323.585 50.8977C323.585 50.0114 323.369 49.2083 322.938 48.4886C322.513 47.7614 321.911 47.1856 321.131 46.7614C320.358 46.3371 319.449 46.125 318.403 46.125H312.153V55.0909ZM312.153 44.2386H318.074C318.991 44.2386 319.794 44.0492 320.483 43.6705C321.172 43.2917 321.71 42.7689 322.097 42.1023C322.483 41.4356 322.676 40.6742 322.676 39.8182C322.676 38.5833 322.275 37.5795 321.472 36.8068C320.669 36.0265 319.472 35.6364 317.881 35.6364H312.153V44.2386ZM337.181 57H334.954L343.42 33.7273H345.693L354.159 57H351.931L344.636 36.4886H344.477L337.181 57ZM338.784 48.0795H350.329V49.9886H338.784V48.0795ZM364.547 57V33.7273H372.059C373.71 33.7273 375.089 34.0265 376.195 34.625C377.309 35.2159 378.146 36.0379 378.706 37.0909C379.274 38.1364 379.559 39.3371 379.559 40.6932C379.559 42.0492 379.274 43.2462 378.706 44.2841C378.146 45.322 377.312 46.1326 376.206 46.7159C375.1 47.2992 373.729 47.5909 372.093 47.5909H365.695V45.6477H372.036C373.248 45.6477 374.255 45.447 375.059 45.0455C375.869 44.6439 376.471 44.072 376.865 43.3295C377.267 42.5871 377.468 41.7083 377.468 40.6932C377.468 39.678 377.267 38.7917 376.865 38.0341C376.464 37.2689 375.858 36.678 375.047 36.2614C374.244 35.8447 373.229 35.6364 372.002 35.6364H366.672V57H364.547ZM374.809 46.5L380.536 57H378.081L372.411 46.5H374.809ZM391.135 57V33.7273H398.646C400.298 33.7273 401.676 34.0265 402.782 34.625C403.896 35.2159 404.733 36.0379 405.294 37.0909C405.862 38.1364 406.146 39.3371 406.146 40.6932C406.146 42.0492 405.862 43.2462 405.294 44.2841C404.733 45.322 403.9 46.1326 402.794 46.7159C401.688 47.2992 400.316 47.5909 398.68 47.5909H392.282V45.6477H398.623C399.835 45.6477 400.843 45.447 401.646 45.0455C402.457 44.6439 403.059 44.072 403.453 43.3295C403.854 42.5871 404.055 41.7083 404.055 40.6932C404.055 39.678 403.854 38.7917 403.453 38.0341C403.051 37.2689 402.445 36.678 401.635 36.2614C400.832 35.8447 399.816 35.6364 398.589 35.6364H393.26V57H391.135ZM401.396 46.5L407.123 57H404.669L398.998 46.5H401.396ZM417.756 57H415.529L423.995 33.7273H426.268L434.734 57H432.506L425.211 36.4886H425.052L417.756 57ZM419.359 48.0795H430.904V49.9886H419.359V48.0795Z" fill="black"/>
<path d="M353.888 85.2273C352.96 85.2273 352.143 84.9834 351.438 84.4957C350.732 84.0033 350.18 83.331 349.783 82.4787C349.39 81.6264 349.193 80.6605 349.193 79.581C349.193 78.5014 349.392 77.5355 349.79 76.6832C350.188 75.831 350.739 75.1586 351.445 74.6662C352.15 74.1738 352.962 73.9276 353.881 73.9276C354.572 73.9276 355.202 74.0696 355.77 74.3537C356.343 74.6378 356.816 75.0331 357.19 75.5398C357.569 76.0464 357.811 76.6335 357.915 77.3011H357.034C356.892 76.5625 356.537 75.9517 355.969 75.4688C355.405 74.9811 354.712 74.7372 353.888 74.7372C353.149 74.7372 352.491 74.9455 351.913 75.3622C351.336 75.7741 350.881 76.3447 350.55 77.0739C350.218 77.7983 350.053 78.6293 350.053 79.5668C350.053 80.4901 350.214 81.3187 350.536 82.0526C350.857 82.7817 351.307 83.3594 351.885 83.7855C352.463 84.2116 353.13 84.4247 353.888 84.4247C354.423 84.4247 354.911 84.3182 355.351 84.1051C355.796 83.892 356.168 83.589 356.466 83.196C356.764 82.803 356.961 82.3438 357.055 81.8182H357.936C357.832 82.4905 357.595 83.0824 357.226 83.5938C356.857 84.1051 356.385 84.5052 355.812 84.794C355.24 85.0829 354.598 85.2273 353.888 85.2273ZM366.946 85.2273C366.046 85.2273 365.246 84.9858 364.545 84.5028C363.845 84.0152 363.293 83.3452 362.891 82.4929C362.488 81.6406 362.287 80.67 362.287 79.581C362.287 78.4872 362.488 77.5166 362.891 76.669C363.293 75.8168 363.845 75.1468 364.545 74.6591C365.246 74.1714 366.046 73.9276 366.946 73.9276C367.846 73.9276 368.646 74.1714 369.347 74.6591C370.047 75.1468 370.599 75.8168 371.001 76.669C371.404 77.5213 371.605 78.492 371.605 79.581C371.605 80.67 371.404 81.6406 371.001 82.4929C370.599 83.3452 370.047 84.0152 369.347 84.5028C368.646 84.9858 367.846 85.2273 366.946 85.2273ZM366.946 84.4247C367.708 84.4247 368.374 84.2093 368.942 83.7784C369.515 83.3475 369.957 82.7652 370.27 82.0312C370.587 81.2973 370.746 80.4806 370.746 79.581C370.746 78.6813 370.587 77.867 370.27 77.1378C369.953 76.4039 369.51 75.8215 368.942 75.3906C368.374 74.955 367.708 74.7372 366.946 74.7372C366.184 74.7372 365.518 74.955 364.95 75.3906C364.382 75.8215 363.939 76.4039 363.622 77.1378C363.305 77.867 363.146 78.6813 363.146 79.581C363.146 80.4806 363.303 81.2973 363.615 82.0312C363.932 82.7652 364.375 83.3475 364.943 83.7784C365.516 84.2093 366.184 84.4247 366.946 84.4247ZM377.456 77.9261V85H376.59V74.0909H377.435V75.8168H377.52C377.776 75.2533 378.185 74.8011 378.749 74.4602C379.312 74.1193 379.982 73.9489 380.759 73.9489C381.493 73.9489 382.137 74.1051 382.691 74.4176C383.249 74.7301 383.685 75.1752 383.998 75.7528C384.315 76.3258 384.473 77.0099 384.473 77.8054V85H383.607V77.8409C383.607 76.9129 383.33 76.1671 382.776 75.6037C382.227 75.0355 381.5 74.7514 380.596 74.7514C379.989 74.7514 379.45 74.884 378.976 75.1491C378.503 75.4143 378.131 75.786 377.861 76.2642C377.591 76.7377 377.456 77.2917 377.456 77.9261ZM394.165 85.2273C393.237 85.2273 392.42 84.9834 391.715 84.4957C391.009 84.0033 390.458 83.331 390.06 82.4787C389.667 81.6264 389.471 80.6605 389.471 79.581C389.471 78.5014 389.669 77.5355 390.067 76.6832C390.465 75.831 391.016 75.1586 391.722 74.6662C392.427 74.1738 393.239 73.9276 394.158 73.9276C394.849 73.9276 395.479 74.0696 396.047 74.3537C396.62 74.6378 397.094 75.0331 397.468 75.5398C397.846 76.0464 398.088 76.6335 398.192 77.3011H397.311C397.169 76.5625 396.814 75.9517 396.246 75.4688C395.683 74.9811 394.989 74.7372 394.165 74.7372C393.426 74.7372 392.768 74.9455 392.191 75.3622C391.613 75.7741 391.158 76.3447 390.827 77.0739C390.496 77.7983 390.33 78.6293 390.33 79.5668C390.33 80.4901 390.491 81.3187 390.813 82.0526C391.135 82.7817 391.585 83.3594 392.162 83.7855C392.74 84.2116 393.408 84.4247 394.165 84.4247C394.7 84.4247 395.188 84.3182 395.628 84.1051C396.073 83.892 396.445 83.589 396.743 83.196C397.042 82.803 397.238 82.3438 397.333 81.8182H398.213C398.109 82.4905 397.873 83.0824 397.503 83.5938C397.134 84.1051 396.663 84.5052 396.09 84.794C395.517 85.0829 394.875 85.2273 394.165 85.2273ZM407.422 85.2273C406.437 85.2273 405.58 84.9834 404.851 84.4957C404.122 84.008 403.559 83.3404 403.161 82.4929C402.763 81.6454 402.564 80.6795 402.564 79.5952C402.564 78.5062 402.763 77.5355 403.161 76.6832C403.563 75.831 404.115 75.1586 404.816 74.6662C405.516 74.1738 406.317 73.9276 407.216 73.9276C407.827 73.9276 408.405 74.0507 408.949 74.2969C409.498 74.5384 409.981 74.8887 410.398 75.348C410.819 75.8073 411.149 76.3613 411.385 77.0099C411.627 77.6586 411.748 78.3878 411.748 79.1974V79.7372H403.111V78.9489H410.881C410.881 78.1581 410.72 77.4455 410.398 76.8111C410.076 76.1766 409.638 75.6723 409.084 75.2983C408.53 74.9242 407.908 74.7372 407.216 74.7372C406.492 74.7372 405.846 74.9408 405.277 75.348C404.714 75.7505 404.266 76.295 403.935 76.9815C403.608 77.6681 403.438 78.4351 403.424 79.2827V79.6378C403.424 80.5469 403.582 81.3636 403.9 82.0881C404.221 82.8078 404.681 83.3783 405.277 83.7997C405.874 84.2164 406.589 84.4247 407.422 84.4247C408.019 84.4247 408.528 84.3253 408.949 84.1264C409.375 83.9228 409.723 83.6766 409.993 83.3878C410.263 83.099 410.467 82.8196 410.604 82.5497L411.392 82.8693C411.227 83.2339 410.969 83.5985 410.618 83.9631C410.273 84.3229 409.832 84.6236 409.297 84.8651C408.767 85.1065 408.142 85.2273 407.422 85.2273ZM416.73 89.0909V74.0909H417.576V76.527H417.682C417.853 76.0582 418.092 75.6274 418.4 75.2344C418.712 74.8414 419.098 74.5265 419.557 74.2898C420.021 74.0483 420.566 73.9276 421.191 73.9276C422.071 73.9276 422.838 74.169 423.492 74.652C424.145 75.1349 424.652 75.8026 425.012 76.6548C425.372 77.5024 425.551 78.4754 425.551 79.5739C425.551 80.6723 425.369 81.6477 425.005 82.5C424.645 83.3475 424.138 84.0152 423.485 84.5028C422.836 84.9858 422.076 85.2273 421.205 85.2273C420.585 85.2273 420.04 85.1089 419.571 84.8722C419.107 84.6354 418.717 84.3205 418.4 83.9276C418.087 83.5298 417.848 83.0942 417.682 82.6207H417.597V89.0909H416.73ZM417.583 79.5668C417.583 80.4948 417.725 81.3258 418.009 82.0597C418.293 82.7888 418.7 83.3665 419.23 83.7926C419.761 84.214 420.393 84.4247 421.127 84.4247C421.87 84.4247 422.507 84.2116 423.037 83.7855C423.572 83.3546 423.98 82.7723 424.259 82.0384C424.543 81.3045 424.685 80.4806 424.685 79.5668C424.685 78.6529 424.545 77.8314 424.266 77.1023C423.987 76.3731 423.582 75.7978 423.051 75.3764C422.521 74.9503 421.88 74.7372 421.127 74.7372C420.383 74.7372 419.747 74.9479 419.216 75.3693C418.691 75.786 418.286 76.3589 418.002 77.0881C417.722 77.8125 417.583 78.6387 417.583 79.5668ZM434.403 74.0909V74.8651H429.638V74.0909H434.403ZM431.25 71.4773H432.109V82.4219C432.109 82.867 432.195 83.2315 432.365 83.5156C432.54 83.795 432.768 84.0033 433.047 84.1406C433.331 84.2732 433.634 84.3395 433.956 84.3395C434.112 84.3395 434.247 84.3277 434.361 84.304C434.479 84.2803 434.59 84.2495 434.695 84.2116L434.908 85C434.775 85.0473 434.628 85.0876 434.467 85.1207C434.306 85.1586 434.117 85.1776 433.899 85.1776C433.445 85.1776 433.014 85.0758 432.607 84.8722C432.204 84.6686 431.877 84.3726 431.626 83.9844C431.375 83.5961 431.25 83.1274 431.25 82.5781V71.4773Z" fill="black"/>
</svg>
