<svg width="466" height="77" viewBox="0 0 466 77" fill="none" xmlns="http://www.w3.org/2000/svg">
<path d="M0 8C0 3.58172 3.58172 0 8 0H466V77H8C3.58173 77 0 73.4183 0 69V8Z" fill="white"/>
<path d="M28.0909 50V26.7273H35.6023C37.2538 26.7273 38.6326 27.0455 39.7386 27.6818C40.8523 28.3106 41.6894 29.1667 42.25 30.25C42.8182 31.3333 43.1023 32.553 43.1023 33.9091C43.1023 35.2652 42.822 36.4886 42.2614 37.5795C41.7008 38.6629 40.8674 39.5227 39.7614 40.1591C38.6553 40.7879 37.2803 41.1023 35.6364 41.1023H29.7273V39.1932H35.5795C36.7992 39.1932 37.8106 38.9659 38.6136 38.5114C39.4167 38.0492 40.0152 37.4205 40.4091 36.625C40.8106 35.8295 41.0114 34.9242 41.0114 33.9091C41.0114 32.8939 40.8106 31.9886 40.4091 31.1932C40.0152 30.3977 39.4129 29.7727 38.6023 29.3182C37.7992 28.8636 36.7803 28.6364 35.5455 28.6364H30.2159V50H28.0909ZM48.0909 50V26.7273H55.6023C57.2538 26.7273 58.6326 27.0265 59.7386 27.625C60.8523 28.2159 61.6894 29.0379 62.25 30.0909C62.8182 31.1364 63.1023 32.3371 63.1023 33.6932C63.1023 35.0492 62.8182 36.2462 62.25 37.2841C61.6894 38.322 60.8561 39.1326 59.75 39.7159C58.6439 40.2992 57.2727 40.5909 55.6364 40.5909H49.2386V38.6477H55.5795C56.7917 38.6477 57.7992 38.447 58.6023 38.0455C59.4129 37.6439 60.0152 37.072 60.4091 36.3295C60.8106 35.5871 61.0114 34.7083 61.0114 33.6932C61.0114 32.678 60.8106 31.7917 60.4091 31.0341C60.0076 30.2689 59.4015 29.678 58.5909 29.2614C57.7879 28.8447 56.7727 28.6364 55.5455 28.6364H50.2159V50H48.0909ZM58.3523 39.5L64.0795 50H61.625L55.9545 39.5H58.3523ZM87.358 38.3636C87.358 40.7879 86.9261 42.8977 86.0625 44.6932C85.1989 46.4811 84.0095 47.8674 82.4943 48.8523C80.9867 49.8295 79.2519 50.3182 77.2898 50.3182C75.3277 50.3182 73.589 49.8295 72.0739 48.8523C70.5663 47.8674 69.3807 46.4811 68.517 44.6932C67.661 42.8977 67.233 40.7879 67.233 38.3636C67.233 35.9394 67.661 33.8333 68.517 32.0455C69.3807 30.25 70.5701 28.8636 72.0852 27.8864C73.6004 26.9015 75.3352 26.4091 77.2898 26.4091C79.2519 26.4091 80.9867 26.9015 82.4943 27.8864C84.0095 28.8636 85.1989 30.25 86.0625 32.0455C86.9261 33.8333 87.358 35.9394 87.358 38.3636ZM85.2898 38.3636C85.2898 36.2803 84.9413 34.4962 84.2443 33.0114C83.5473 31.5189 82.5966 30.3788 81.392 29.5909C80.1875 28.803 78.8201 28.4091 77.2898 28.4091C75.767 28.4091 74.4034 28.803 73.1989 29.5909C71.9943 30.3788 71.0398 31.5152 70.3352 33C69.6383 34.4848 69.2898 36.2727 69.2898 38.3636C69.2898 40.447 69.6383 42.2311 70.3352 43.7159C71.0322 45.2008 71.983 46.3409 73.1875 47.1364C74.392 47.9242 75.7595 48.3182 77.2898 48.3182C78.8201 48.3182 80.1875 47.9242 81.392 47.1364C82.6042 46.3485 83.5587 45.2121 84.2557 43.7273C84.9527 42.2348 85.2973 40.447 85.2898 38.3636ZM108.599 34C108.387 33.2273 108.077 32.5038 107.668 31.8295C107.259 31.1477 106.751 30.553 106.145 30.0455C105.546 29.5303 104.853 29.1288 104.065 28.8409C103.285 28.553 102.414 28.4091 101.452 28.4091C99.9366 28.4091 98.5805 28.803 97.3835 29.5909C96.1866 30.3788 95.2396 31.5152 94.5426 33C93.8532 34.4848 93.5085 36.2727 93.5085 38.3636C93.5085 40.447 93.857 42.2311 94.554 43.7159C95.2509 45.2008 96.2055 46.3409 97.4176 47.1364C98.6373 47.9242 100.031 48.3182 101.599 48.3182C103.031 48.3182 104.296 48 105.395 47.3636C106.493 46.7273 107.349 45.8182 107.963 44.6364C108.584 43.4545 108.887 42.0492 108.872 40.4205L109.554 40.6364H102.099V38.7273H110.94V40.6364C110.94 42.6212 110.539 44.3371 109.736 45.7841C108.933 47.2311 107.83 48.3485 106.429 49.1364C105.027 49.9242 103.418 50.3182 101.599 50.3182C99.5691 50.3182 97.7926 49.8295 96.2699 48.8523C94.7472 47.8674 93.5616 46.4811 92.7131 44.6932C91.8722 42.8977 91.4517 40.7879 91.4517 38.3636C91.4517 36.5379 91.6941 34.8902 92.179 33.4205C92.6638 31.9508 93.3494 30.6932 94.2358 29.6477C95.1297 28.6023 96.1866 27.803 97.4062 27.25C98.6259 26.6894 99.9744 26.4091 101.452 26.4091C102.724 26.4091 103.887 26.6098 104.94 27.0114C106.001 27.4129 106.933 27.9659 107.736 28.6705C108.546 29.3674 109.209 30.1742 109.724 31.0909C110.247 32 110.599 32.9697 110.781 34H108.599ZM116.216 50V26.7273H123.727C125.379 26.7273 126.758 27.0265 127.864 27.625C128.977 28.2159 129.814 29.0379 130.375 30.0909C130.943 31.1364 131.227 32.3371 131.227 33.6932C131.227 35.0492 130.943 36.2462 130.375 37.2841C129.814 38.322 128.981 39.1326 127.875 39.7159C126.769 40.2992 125.398 40.5909 123.761 40.5909H117.364V38.6477H123.705C124.917 38.6477 125.924 38.447 126.727 38.0455C127.538 37.6439 128.14 37.072 128.534 36.3295C128.936 35.5871 129.136 34.7083 129.136 33.6932C129.136 32.678 128.936 31.7917 128.534 31.0341C128.133 30.2689 127.527 29.678 126.716 29.2614C125.913 28.8447 124.898 28.6364 123.67 28.6364H118.341V50H116.216ZM126.477 39.5L132.205 50H129.75L124.08 39.5H126.477ZM136.403 50V26.7273H149.903V28.6364H138.528V37.3977H149.188V39.3068H138.528V48.0909H150.131V50H136.403ZM168.04 32.5455C167.911 31.25 167.339 30.2197 166.324 29.4545C165.309 28.6894 164.032 28.3068 162.494 28.3068C161.411 28.3068 160.456 28.4924 159.631 28.8636C158.813 29.2348 158.169 29.75 157.699 30.4091C157.237 31.0606 157.006 31.803 157.006 32.6364C157.006 33.25 157.138 33.7879 157.403 34.25C157.669 34.7121 158.025 35.1098 158.472 35.4432C158.926 35.7689 159.426 36.0492 159.972 36.2841C160.525 36.5189 161.081 36.7159 161.642 36.875L164.097 37.5795C164.839 37.7841 165.581 38.0455 166.324 38.3636C167.066 38.6818 167.744 39.0833 168.358 39.5682C168.979 40.0455 169.475 40.6326 169.847 41.3295C170.225 42.0189 170.415 42.8485 170.415 43.8182C170.415 45.0606 170.093 46.178 169.449 47.1705C168.805 48.1629 167.881 48.9508 166.676 49.5341C165.472 50.1098 164.028 50.3977 162.347 50.3977C160.763 50.3977 159.388 50.1364 158.222 49.6136C157.055 49.0833 156.138 48.3523 155.472 47.4205C154.805 46.4886 154.43 45.4091 154.347 44.1818H156.528C156.604 45.0985 156.907 45.875 157.438 46.5114C157.968 47.1477 158.657 47.6326 159.506 47.9659C160.354 48.2917 161.301 48.4545 162.347 48.4545C163.506 48.4545 164.536 48.2614 165.438 47.875C166.347 47.4811 167.059 46.9356 167.574 46.2386C168.097 45.5341 168.358 44.7159 168.358 43.7841C168.358 42.9962 168.153 42.3371 167.744 41.8068C167.335 41.2689 166.763 40.8182 166.028 40.4545C165.301 40.0909 164.456 39.7689 163.494 39.4886L160.71 38.6705C158.884 38.125 157.468 37.3712 156.46 36.4091C155.453 35.447 154.949 34.2197 154.949 32.7273C154.949 31.4773 155.282 30.3788 155.949 29.4318C156.623 28.4773 157.532 27.7348 158.676 27.2045C159.828 26.6667 161.119 26.3977 162.551 26.3977C163.998 26.3977 165.278 26.6629 166.392 27.1932C167.506 27.7235 168.388 28.4545 169.04 29.3864C169.699 30.3106 170.051 31.3636 170.097 32.5455H168.04ZM188.165 32.5455C188.036 31.25 187.464 30.2197 186.449 29.4545C185.434 28.6894 184.157 28.3068 182.619 28.3068C181.536 28.3068 180.581 28.4924 179.756 28.8636C178.938 29.2348 178.294 29.75 177.824 30.4091C177.362 31.0606 177.131 31.803 177.131 32.6364C177.131 33.25 177.263 33.7879 177.528 34.25C177.794 34.7121 178.15 35.1098 178.597 35.4432C179.051 35.7689 179.551 36.0492 180.097 36.2841C180.65 36.5189 181.206 36.7159 181.767 36.875L184.222 37.5795C184.964 37.7841 185.706 38.0455 186.449 38.3636C187.191 38.6818 187.869 39.0833 188.483 39.5682C189.104 40.0455 189.6 40.6326 189.972 41.3295C190.35 42.0189 190.54 42.8485 190.54 43.8182C190.54 45.0606 190.218 46.178 189.574 47.1705C188.93 48.1629 188.006 48.9508 186.801 49.5341C185.597 50.1098 184.153 50.3977 182.472 50.3977C180.888 50.3977 179.513 50.1364 178.347 49.6136C177.18 49.0833 176.263 48.3523 175.597 47.4205C174.93 46.4886 174.555 45.4091 174.472 44.1818H176.653C176.729 45.0985 177.032 45.875 177.562 46.5114C178.093 47.1477 178.782 47.6326 179.631 47.9659C180.479 48.2917 181.426 48.4545 182.472 48.4545C183.631 48.4545 184.661 48.2614 185.562 47.875C186.472 47.4811 187.184 46.9356 187.699 46.2386C188.222 45.5341 188.483 44.7159 188.483 43.7841C188.483 42.9962 188.278 42.3371 187.869 41.8068C187.46 41.2689 186.888 40.8182 186.153 40.4545C185.426 40.0909 184.581 39.7689 183.619 39.4886L180.835 38.6705C179.009 38.125 177.593 37.3712 176.585 36.4091C175.578 35.447 175.074 34.2197 175.074 32.7273C175.074 31.4773 175.407 30.3788 176.074 29.4318C176.748 28.4773 177.657 27.7348 178.801 27.2045C179.953 26.6667 181.244 26.3977 182.676 26.3977C184.123 26.3977 185.403 26.6629 186.517 27.1932C187.631 27.7235 188.513 28.4545 189.165 29.3864C189.824 30.3106 190.176 31.3636 190.222 32.5455H188.165ZM195.688 50H193.46L201.926 26.7273H204.199L212.665 50H210.438L203.142 29.4886H202.983L195.688 50ZM197.29 41.0795H208.835V42.9886H197.29V41.0795ZM199.233 24.0568L197.597 23.9659C197.634 22.9583 197.968 22.1364 198.597 21.5C199.225 20.8561 199.994 20.5341 200.903 20.5341C201.366 20.5341 201.771 20.6136 202.119 20.7727C202.468 20.9318 202.794 21.1174 203.097 21.3295C203.407 21.5341 203.722 21.7197 204.04 21.8864C204.366 22.0455 204.733 22.125 205.142 22.125C205.604 22.125 206.006 21.9583 206.347 21.625C206.695 21.2917 206.892 20.875 206.938 20.375L208.54 20.5568C208.487 21.5795 208.142 22.3939 207.506 23C206.877 23.6061 206.119 23.9091 205.233 23.9091C204.725 23.9091 204.297 23.8295 203.949 23.6705C203.608 23.5038 203.297 23.3182 203.017 23.1136C202.744 22.9091 202.449 22.7273 202.131 22.5682C201.82 22.4015 201.441 22.3182 200.994 22.3182C200.509 22.3182 200.1 22.4886 199.767 22.8295C199.441 23.1629 199.263 23.572 199.233 24.0568ZM234.639 38.3636C234.639 40.7879 234.207 42.8977 233.344 44.6932C232.48 46.4811 231.291 47.8674 229.776 48.8523C228.268 49.8295 226.533 50.3182 224.571 50.3182C222.609 50.3182 220.87 49.8295 219.355 48.8523C217.848 47.8674 216.662 46.4811 215.798 44.6932C214.942 42.8977 214.514 40.7879 214.514 38.3636C214.514 35.9394 214.942 33.8333 215.798 32.0455C216.662 30.25 217.851 28.8636 219.366 27.8864C220.882 26.9015 222.616 26.4091 224.571 26.4091C226.533 26.4091 228.268 26.9015 229.776 27.8864C231.291 28.8636 232.48 30.25 233.344 32.0455C234.207 33.8333 234.639 35.9394 234.639 38.3636ZM232.571 38.3636C232.571 36.2803 232.223 34.4962 231.526 33.0114C230.829 31.5189 229.878 30.3788 228.673 29.5909C227.469 28.803 226.101 28.4091 224.571 28.4091C223.048 28.4091 221.685 28.803 220.48 29.5909C219.276 30.3788 218.321 31.5152 217.616 33C216.92 34.4848 216.571 36.2727 216.571 38.3636C216.571 40.447 216.92 42.2311 217.616 43.7159C218.313 45.2008 219.264 46.3409 220.469 47.1364C221.673 47.9242 223.041 48.3182 224.571 48.3182C226.101 48.3182 227.469 47.9242 228.673 47.1364C229.885 46.3485 230.84 45.2121 231.537 43.7273C232.234 42.2348 232.579 40.447 232.571 38.3636ZM255.597 50H248.778V26.7273H256.006C258.225 26.7273 260.123 27.1894 261.699 28.1136C263.282 29.0379 264.494 30.3636 265.335 32.0909C266.176 33.8182 266.597 35.8902 266.597 38.3068C266.597 40.7462 266.165 42.8409 265.301 44.5909C264.445 46.3333 263.195 47.6705 261.551 48.6023C259.915 49.5341 257.93 50 255.597 50ZM250.903 48.0909H255.472C257.472 48.0909 259.146 47.697 260.494 46.9091C261.843 46.1212 262.854 44.9962 263.528 43.5341C264.203 42.072 264.54 40.3295 264.54 38.3068C264.532 36.2992 264.199 34.572 263.54 33.125C262.888 31.678 261.919 30.5682 260.631 29.7955C259.35 29.0227 257.767 28.6364 255.881 28.6364H250.903V48.0909ZM270.688 50H268.46L276.926 26.7273H279.199L287.665 50H285.438L278.142 29.4886H277.983L270.688 50ZM272.29 41.0795H283.835V42.9886H272.29V41.0795ZM319.733 38.3636C319.733 40.7879 319.301 42.8977 318.438 44.6932C317.574 46.4811 316.384 47.8674 314.869 48.8523C313.362 49.8295 311.627 50.3182 309.665 50.3182C307.703 50.3182 305.964 49.8295 304.449 48.8523C302.941 47.8674 301.756 46.4811 300.892 44.6932C300.036 42.8977 299.608 40.7879 299.608 38.3636C299.608 35.9394 300.036 33.8333 300.892 32.0455C301.756 30.25 302.945 28.8636 304.46 27.8864C305.975 26.9015 307.71 26.4091 309.665 26.4091C311.627 26.4091 313.362 26.9015 314.869 27.8864C316.384 28.8636 317.574 30.25 318.438 32.0455C319.301 33.8333 319.733 35.9394 319.733 38.3636ZM317.665 38.3636C317.665 36.2803 317.316 34.4962 316.619 33.0114C315.922 31.5189 314.972 30.3788 313.767 29.5909C312.563 28.803 311.195 28.4091 309.665 28.4091C308.142 28.4091 306.778 28.803 305.574 29.5909C304.369 30.3788 303.415 31.5152 302.71 33C302.013 34.4848 301.665 36.2727 301.665 38.3636C301.665 40.447 302.013 42.2311 302.71 43.7159C303.407 45.2008 304.358 46.3409 305.562 47.1364C306.767 47.9242 308.134 48.3182 309.665 48.3182C311.195 48.3182 312.563 47.9242 313.767 47.1364C314.979 46.3485 315.934 45.2121 316.631 43.7273C317.328 42.2348 317.672 40.447 317.665 38.3636ZM324.872 50V26.7273H332.724C334.24 26.7273 335.501 26.9924 336.509 27.5227C337.524 28.053 338.285 28.7765 338.793 29.6932C339.3 30.6098 339.554 31.6515 339.554 32.8182C339.554 33.7879 339.391 34.6174 339.065 35.3068C338.74 35.9962 338.296 36.553 337.736 36.9773C337.175 37.4015 336.55 37.7083 335.861 37.8977V38.0795C336.611 38.1326 337.338 38.3977 338.043 38.875C338.747 39.3447 339.327 40.0038 339.781 40.8523C340.236 41.7008 340.463 42.7159 340.463 43.8977C340.463 45.072 340.202 46.1212 339.679 47.0455C339.156 47.9621 338.353 48.6856 337.27 49.2159C336.194 49.7386 334.823 50 333.156 50H324.872ZM326.997 48.0909H333.156C334.952 48.0909 336.277 47.6932 337.134 46.8977C337.997 46.1023 338.429 45.1023 338.429 43.8977C338.429 43.0114 338.213 42.2083 337.781 41.4886C337.357 40.7614 336.755 40.1856 335.974 39.7614C335.202 39.3371 334.293 39.125 333.247 39.125H326.997V48.0909ZM326.997 37.2386H332.918C333.834 37.2386 334.637 37.0492 335.327 36.6705C336.016 36.2917 336.554 35.7689 336.94 35.1023C337.327 34.4356 337.52 33.6742 337.52 32.8182C337.52 31.5833 337.118 30.5795 336.315 29.8068C335.512 29.0265 334.315 28.6364 332.724 28.6364H326.997V37.2386ZM345.591 50V26.7273H353.102C354.754 26.7273 356.133 27.0265 357.239 27.625C358.352 28.2159 359.189 29.0379 359.75 30.0909C360.318 31.1364 360.602 32.3371 360.602 33.6932C360.602 35.0492 360.318 36.2462 359.75 37.2841C359.189 38.322 358.356 39.1326 357.25 39.7159C356.144 40.2992 354.773 40.5909 353.136 40.5909H346.739V38.6477H353.08C354.292 38.6477 355.299 38.447 356.102 38.0455C356.913 37.6439 357.515 37.072 357.909 36.3295C358.311 35.5871 358.511 34.7083 358.511 33.6932C358.511 32.678 358.311 31.7917 357.909 31.0341C357.508 30.2689 356.902 29.678 356.091 29.2614C355.288 28.8447 354.273 28.6364 353.045 28.6364H347.716V50H345.591ZM355.852 39.5L361.58 50H359.125L353.455 39.5H355.852ZM365.812 50H363.585L372.051 26.7273H374.324L382.79 50H380.562L373.267 29.4886H373.108L365.812 50ZM367.415 41.0795H378.96V42.9886H367.415V41.0795Z" fill="black"/>
<path d="M425 26.875V30.75" stroke="black" stroke-width="2" stroke-linecap="round" stroke-linejoin="round"/>
<path d="M437 38.5H433" stroke="black" stroke-width="2" stroke-linecap="round" stroke-linejoin="round"/>
<path d="M433.488 46.7223L430.663 43.9856" stroke="black" stroke-width="2" stroke-linecap="round" stroke-linejoin="round"/>
<path d="M425 50.125V46.25" stroke="black" stroke-width="2" stroke-linecap="round" stroke-linejoin="round"/>
<path d="M416.513 46.7223L419.338 43.9856" stroke="black" stroke-width="2" stroke-linecap="round" stroke-linejoin="round"/>
<path d="M413 38.5H417" stroke="black" stroke-width="2" stroke-linecap="round" stroke-linejoin="round"/>
<path d="M416.513 30.2777L419.338 33.0145" stroke="black" stroke-width="2" stroke-linecap="round" stroke-linejoin="round"/>
</svg>
