<svg width="225" height="77" viewBox="0 0 225 77" fill="none" xmlns="http://www.w3.org/2000/svg">
<path d="M0 8C0 3.58172 3.58172 0 8 0H225V77H8C3.58172 77 0 73.4183 0 69V8Z" fill="white"/>
<path d="M173 51C179.627 51 185 45.6274 185 39C185 32.3726 179.627 27 173 27C166.373 27 161 32.3726 161 39C161 45.6274 166.373 51 173 51Z" stroke="black" stroke-width="2" stroke-linecap="round" stroke-linejoin="round"/>
<path d="M172 38H173V45H174" stroke="black" stroke-width="2" stroke-linecap="round" stroke-linejoin="round"/>
<path d="M172.75 35C173.578 35 174.25 34.3284 174.25 33.5C174.25 32.6716 173.578 32 172.75 32C171.922 32 171.25 32.6716 171.25 33.5C171.25 34.3284 171.922 35 172.75 35Z" fill="black"/>
<path d="M51.7273 32.5455C51.5985 31.25 51.0265 30.2197 50.0114 29.4545C48.9962 28.6894 47.7197 28.3068 46.1818 28.3068C45.0985 28.3068 44.1439 28.4924 43.3182 28.8636C42.5 29.2348 41.8561 29.75 41.3864 30.4091C40.9242 31.0606 40.6932 31.803 40.6932 32.6364C40.6932 33.25 40.8258 33.7879 41.0909 34.25C41.3561 34.7121 41.7121 35.1098 42.1591 35.4432C42.6136 35.7689 43.1136 36.0492 43.6591 36.2841C44.2121 36.5189 44.7689 36.7159 45.3295 36.875L47.7841 37.5795C48.5265 37.7841 49.2689 38.0455 50.0114 38.3636C50.7538 38.6818 51.4318 39.0833 52.0455 39.5682C52.6667 40.0455 53.1629 40.6326 53.5341 41.3295C53.9129 42.0189 54.1023 42.8485 54.1023 43.8182C54.1023 45.0606 53.7803 46.178 53.1364 47.1705C52.4924 48.1629 51.5682 48.9508 50.3636 49.5341C49.1591 50.1098 47.7159 50.3977 46.0341 50.3977C44.4508 50.3977 43.0758 50.1364 41.9091 49.6136C40.7424 49.0833 39.8258 48.3523 39.1591 47.4205C38.4924 46.4886 38.1174 45.4091 38.0341 44.1818H40.2159C40.2917 45.0985 40.5947 45.875 41.125 46.5114C41.6553 47.1477 42.3447 47.6326 43.1932 47.9659C44.0417 48.2917 44.9886 48.4545 46.0341 48.4545C47.1932 48.4545 48.2235 48.2614 49.125 47.875C50.0341 47.4811 50.7462 46.9356 51.2614 46.2386C51.7841 45.5341 52.0455 44.7159 52.0455 43.7841C52.0455 42.9962 51.8409 42.3371 51.4318 41.8068C51.0227 41.2689 50.4508 40.8182 49.7159 40.4545C48.9886 40.0909 48.1439 39.7689 47.1818 39.4886L44.3977 38.6705C42.572 38.125 41.1553 37.3712 40.1477 36.4091C39.1402 35.447 38.6364 34.2197 38.6364 32.7273C38.6364 31.4773 38.9697 30.3788 39.6364 29.4318C40.3106 28.4773 41.2197 27.7348 42.3636 27.2045C43.5152 26.6667 44.8068 26.3977 46.2386 26.3977C47.6856 26.3977 48.9659 26.6629 50.0795 27.1932C51.1932 27.7235 52.0758 28.4545 52.7273 29.3864C53.3864 30.3106 53.7386 31.3636 53.7841 32.5455H51.7273ZM78.2955 38.3636C78.2955 40.7879 77.8636 42.8977 77 44.6932C76.1364 46.4811 74.947 47.8674 73.4318 48.8523C71.9242 49.8295 70.1894 50.3182 68.2273 50.3182C66.2652 50.3182 64.5265 49.8295 63.0114 48.8523C61.5038 47.8674 60.3182 46.4811 59.4545 44.6932C58.5985 42.8977 58.1705 40.7879 58.1705 38.3636C58.1705 35.9394 58.5985 33.8333 59.4545 32.0455C60.3182 30.25 61.5076 28.8636 63.0227 27.8864C64.5379 26.9015 66.2727 26.4091 68.2273 26.4091C70.1894 26.4091 71.9242 26.9015 73.4318 27.8864C74.947 28.8636 76.1364 30.25 77 32.0455C77.8636 33.8333 78.2955 35.9394 78.2955 38.3636ZM76.2273 38.3636C76.2273 36.2803 75.8788 34.4962 75.1818 33.0114C74.4848 31.5189 73.5341 30.3788 72.3295 29.5909C71.125 28.803 69.7576 28.4091 68.2273 28.4091C66.7045 28.4091 65.3409 28.803 64.1364 29.5909C62.9318 30.3788 61.9773 31.5152 61.2727 33C60.5758 34.4848 60.2273 36.2727 60.2273 38.3636C60.2273 40.447 60.5758 42.2311 61.2727 43.7159C61.9697 45.2008 62.9205 46.3409 64.125 47.1364C65.3295 47.9242 66.697 48.3182 68.2273 48.3182C69.7576 48.3182 71.125 47.9242 72.3295 47.1364C73.5417 46.3485 74.4962 45.2121 75.1932 43.7273C75.8902 42.2348 76.2348 40.447 76.2273 38.3636ZM83.4347 50V26.7273H91.2869C92.8021 26.7273 94.0634 26.9924 95.071 27.5227C96.0862 28.053 96.8475 28.7765 97.3551 29.6932C97.8627 30.6098 98.1165 31.6515 98.1165 32.8182C98.1165 33.7879 97.9536 34.6174 97.6278 35.3068C97.3021 35.9962 96.8589 36.553 96.2983 36.9773C95.7377 37.4015 95.1127 37.7083 94.4233 37.8977V38.0795C95.1733 38.1326 95.9006 38.3977 96.6051 38.875C97.3097 39.3447 97.8892 40.0038 98.3438 40.8523C98.7983 41.7008 99.0256 42.7159 99.0256 43.8977C99.0256 45.072 98.7642 46.1212 98.2415 47.0455C97.7188 47.9621 96.9157 48.6856 95.8324 49.2159C94.7566 49.7386 93.3854 50 91.7188 50H83.4347ZM85.5597 48.0909H91.7188C93.5142 48.0909 94.84 47.6932 95.696 46.8977C96.5597 46.1023 96.9915 45.1023 96.9915 43.8977C96.9915 43.0114 96.7756 42.2083 96.3438 41.4886C95.9195 40.7614 95.3172 40.1856 94.5369 39.7614C93.7642 39.3371 92.8551 39.125 91.8097 39.125H85.5597V48.0909ZM85.5597 37.2386H91.4801C92.3968 37.2386 93.1998 37.0492 93.8892 36.6705C94.5786 36.2917 95.1165 35.7689 95.5028 35.1023C95.8892 34.4356 96.0824 33.6742 96.0824 32.8182C96.0824 31.5833 95.6809 30.5795 94.8778 29.8068C94.0748 29.0265 92.8778 28.6364 91.2869 28.6364H85.5597V37.2386ZM104.153 50V26.7273H111.665C113.316 26.7273 114.695 27.0265 115.801 27.625C116.915 28.2159 117.752 29.0379 118.312 30.0909C118.881 31.1364 119.165 32.3371 119.165 33.6932C119.165 35.0492 118.881 36.2462 118.312 37.2841C117.752 38.322 116.919 39.1326 115.812 39.7159C114.706 40.2992 113.335 40.5909 111.699 40.5909H105.301V38.6477H111.642C112.854 38.6477 113.862 38.447 114.665 38.0455C115.475 37.6439 116.078 37.072 116.472 36.3295C116.873 35.5871 117.074 34.7083 117.074 33.6932C117.074 32.678 116.873 31.7917 116.472 31.0341C116.07 30.2689 115.464 29.678 114.653 29.2614C113.85 28.8447 112.835 28.6364 111.608 28.6364H106.278V50H104.153ZM114.415 39.5L120.142 50H117.688L112.017 39.5H114.415ZM124.341 50V26.7273H137.841V28.6364H126.466V37.3977H137.125V39.3068H126.466V48.0909H138.068V50H124.341Z" fill="black"/>
</svg>
