<svg width="362" height="77" viewBox="0 0 362 77" fill="none" xmlns="http://www.w3.org/2000/svg">
<path d="M0 8C0 3.58172 3.58172 0 8 0H362V77H8C3.58172 77 0 73.4183 0 69V8Z" fill="white"/>
<path d="M317.55 46.8375L323.85 50.8375C324.662 51.35 325.662 50.5875 325.425 49.65L323.6 42.475C323.551 42.2761 323.558 42.0673 323.623 41.8727C323.687 41.6781 323.805 41.5056 323.962 41.375L329.612 36.6625C330.35 36.05 329.975 34.8125 329.012 34.75L321.637 34.275C321.436 34.2633 321.243 34.1932 321.081 34.0733C320.919 33.9535 320.795 33.789 320.725 33.6L317.975 26.675C317.902 26.4749 317.77 26.302 317.595 26.1798C317.421 26.0577 317.213 25.9922 317 25.9922C316.787 25.9922 316.579 26.0577 316.405 26.1798C316.23 26.302 316.098 26.4749 316.025 26.675L313.275 33.6C313.205 33.789 313.081 33.9535 312.919 34.0733C312.757 34.1932 312.564 34.2633 312.362 34.275L304.987 34.75C304.025 34.8125 303.65 36.05 304.387 36.6625L310.037 41.375C310.195 41.5056 310.313 41.6781 310.377 41.8727C310.441 42.0673 310.449 42.2761 310.4 42.475L308.712 49.125C308.425 50.25 309.625 51.1625 310.587 50.55L316.45 46.8375C316.614 46.733 316.805 46.6774 317 46.6774C317.195 46.6774 317.386 46.733 317.55 46.8375V46.8375Z" stroke="black" stroke-width="2" stroke-linecap="round" stroke-linejoin="round"/>
<path d="M32.125 26.7273L39.3977 47.2386H39.6023L46.875 26.7273H49.1023L40.6364 50H38.3636L29.8977 26.7273H32.125ZM51.125 50H48.8977L57.3636 26.7273H59.6364L68.1023 50H65.875L58.5795 29.4886H58.4205L51.125 50ZM52.7273 41.0795H64.2727V42.9886H52.7273V41.0795ZM90.2159 26.7273V50H88.1477L74.3977 30.5114H74.2159V50H72.0909V26.7273H74.1477L87.9432 46.2386H88.125V26.7273H90.2159ZM94.9943 28.6364V26.7273H111.869V28.6364H104.494V50H102.369V28.6364H94.9943ZM113.969 50H111.741L120.207 26.7273H122.48L130.946 50H128.719L121.423 29.4886H121.264L113.969 50ZM115.571 41.0795H127.116V42.9886H115.571V41.0795ZM149.943 34C149.731 33.2273 149.42 32.5038 149.011 31.8295C148.602 31.1477 148.095 30.553 147.489 30.0455C146.89 29.5303 146.197 29.1288 145.409 28.8409C144.629 28.553 143.758 28.4091 142.795 28.4091C141.28 28.4091 139.924 28.803 138.727 29.5909C137.53 30.3788 136.583 31.5152 135.886 33C135.197 34.4848 134.852 36.2727 134.852 38.3636C134.852 40.447 135.201 42.2311 135.898 43.7159C136.595 45.2008 137.549 46.3409 138.761 47.1364C139.981 47.9242 141.375 48.3182 142.943 48.3182C144.375 48.3182 145.64 48 146.739 47.3636C147.837 46.7273 148.693 45.8182 149.307 44.6364C149.928 43.4545 150.231 42.0492 150.216 40.4205L150.898 40.6364H143.443V38.7273H152.284V40.6364C152.284 42.6212 151.883 44.3371 151.08 45.7841C150.277 47.2311 149.174 48.3485 147.773 49.1364C146.371 49.9242 144.761 50.3182 142.943 50.3182C140.913 50.3182 139.136 49.8295 137.614 48.8523C136.091 47.8674 134.905 46.4811 134.057 44.6932C133.216 42.8977 132.795 40.7879 132.795 38.3636C132.795 36.5379 133.038 34.8902 133.523 33.4205C134.008 31.9508 134.693 30.6932 135.58 29.6477C136.473 28.6023 137.53 27.803 138.75 27.25C139.97 26.6894 141.318 26.4091 142.795 26.4091C144.068 26.4091 145.231 26.6098 146.284 27.0114C147.345 27.4129 148.277 27.9659 149.08 28.6705C149.89 29.3674 150.553 30.1742 151.068 31.0909C151.591 32 151.943 32.9697 152.125 34H149.943ZM157.56 50V26.7273H171.06V28.6364H159.685V37.3977H170.344V39.3068H159.685V48.0909H171.287V50H157.56ZM194.685 26.7273V50H192.616L178.866 30.5114H178.685V50H176.56V26.7273H178.616L192.412 46.2386H192.594V26.7273H194.685ZM213.509 32.5455C213.38 31.25 212.808 30.2197 211.793 29.4545C210.777 28.6894 209.501 28.3068 207.963 28.3068C206.88 28.3068 205.925 28.4924 205.099 28.8636C204.281 29.2348 203.637 29.75 203.168 30.4091C202.705 31.0606 202.474 31.803 202.474 32.6364C202.474 33.25 202.607 33.7879 202.872 34.25C203.137 34.7121 203.493 35.1098 203.94 35.4432C204.395 35.7689 204.895 36.0492 205.44 36.2841C205.993 36.5189 206.55 36.7159 207.111 36.875L209.565 37.5795C210.308 37.7841 211.05 38.0455 211.793 38.3636C212.535 38.6818 213.213 39.0833 213.827 39.5682C214.448 40.0455 214.944 40.6326 215.315 41.3295C215.694 42.0189 215.884 42.8485 215.884 43.8182C215.884 45.0606 215.562 46.178 214.918 47.1705C214.274 48.1629 213.349 48.9508 212.145 49.5341C210.94 50.1098 209.497 50.3977 207.815 50.3977C206.232 50.3977 204.857 50.1364 203.69 49.6136C202.524 49.0833 201.607 48.3523 200.94 47.4205C200.274 46.4886 199.899 45.4091 199.815 44.1818H201.997C202.073 45.0985 202.376 45.875 202.906 46.5114C203.437 47.1477 204.126 47.6326 204.974 47.9659C205.823 48.2917 206.77 48.4545 207.815 48.4545C208.974 48.4545 210.005 48.2614 210.906 47.875C211.815 47.4811 212.527 46.9356 213.043 46.2386C213.565 45.5341 213.827 44.7159 213.827 43.7841C213.827 42.9962 213.622 42.3371 213.213 41.8068C212.804 41.2689 212.232 40.8182 211.497 40.4545C210.77 40.0909 209.925 39.7689 208.963 39.4886L206.179 38.6705C204.353 38.125 202.937 37.3712 201.929 36.4091C200.921 35.447 200.418 34.2197 200.418 32.7273C200.418 31.4773 200.751 30.3788 201.418 29.4318C202.092 28.4773 203.001 27.7348 204.145 27.2045C205.296 26.6667 206.588 26.3977 208.02 26.3977C209.467 26.3977 210.747 26.6629 211.861 27.1932C212.974 27.7235 213.857 28.4545 214.509 29.3864C215.168 30.3106 215.52 31.3636 215.565 32.5455H213.509Z" fill="black"/>
</svg>
